<svg xmlns="http://www.w3.org/2000/svg" xmlns:xlink="http://www.w3.org/1999/xlink" x="0" y="0" version="1.1" viewBox="0 0 512 512" style="enable-background:new 0 0 512 512" xml:space="preserve"><style type="text/css">.st0{fill:#298063}.st2{fill:#1f3049}.st6{fill:#d5872a}.st15{clip-path:url(#SVGID_2_)}.st16{fill:#d17f73}.st17{fill:#e6a585}.st18{fill:#733d28}.st19{fill:#fff}.st20{fill:#4e3333}</style><g id="ICON"><g><ellipse cx="256.4" cy="254.4" class="st0" rx="228.4" ry="228.4"/></g></g><g id="Layer_6"><g><defs><ellipse id="SVGID_1_" cx="256.4" cy="253.4" rx="228.4" ry="228.4"/></defs><clipPath id="SVGID_2_"><use xlink:href="#SVGID_1_" style="overflow:visible"/></clipPath><g class="st15"><g><ellipse cx="164.6" cy="223.4" class="st16" rx="22.2" ry="38.6" transform="matrix(0.9453 -0.3262 0.3262 0.9453 -63.8632 65.9093)"/><ellipse cx="348.1" cy="223.4" class="st16" rx="38.6" ry="22.2" transform="matrix(0.3262 -0.9453 0.9453 0.3262 23.4021 479.6433)"/></g><path d="M489.8,553.6l-0.1-1.1c0-64.5-24.1-126.9-53.5-138.8l-125.3-50.6c-29.4-11.9-77.6-11.9-107.1-0.1L76.6,413.8 C47.2,425.7,23.1,488,23.1,552.5l-0.1,1.1H489.8z" class="st6"/><rect width="110.9" height="73.4" x="200.9" y="311.2" class="st16"/><g><path d="M351.2,235.7c0,54.1-42.4,97.9-94.8,97.9l0,0c-52.4,0-94.8-43.8-94.8-97.9v-56.4c0-54,42.4-97.8,94.8-97.8 l0,0c52.4,0,94.8,43.8,94.8,97.8V235.7z" class="st17"/></g><g><polygon points="218.7 421.5 164.9 386.7 181.7 347.9 256.3 369.5" class="st2"/><g><polygon points="294.1 421.5 347.8 386.7 331.1 347.9 256.4 369.5" class="st2"/></g></g><g><g><polygon points="165.8 224 153.3 224 153.3 141.8 179.1 128.5" class="st18"/><path d="M317.8,71h-58.3h-6.3H195c-23,0-41.6,18.7-41.6,41.6v37.6v27c11.2-29.8,22.3-42.1,46-45.6 c4.2,14,28.1,24.8,57.1,24.8c28.9,0,52.8-10.8,57-24.8c23.8,3.5,34.8,15.9,46,45.6v-27.1v-37.5C359.4,89.7,340.8,71,317.8,71z" class="st18"/></g><polygon points="359.4 224 347 224 333.6 128.5 359.4 141.8" class="st18"/></g><g><circle cx="223.5" cy="214.2" r="9.9" class="st2"/><circle cx="289.2" cy="214.2" r="9.9" class="st2"/></g><g><path d="M220.1,259.6c0.7,23,16.6,41.4,36.3,41.4c19.6,0,35.6-18.4,36.3-41.4c-10.1,5.4-22.7,8.6-36.3,8.6 C242.8,268.1,230.2,264.9,220.1,259.6z" class="st2"/><path d="M236.1,281.4h40.7c3.5,0,6.3-2.8,6.3-6.3v-11.4c-8,2.8-17,4.4-26.6,4.4c-9.5,0-18.6-1.6-26.6-4.4v11.4 C229.8,278.6,232.6,281.4,236.1,281.4z" class="st19"/></g><g><g><path d="M201.7,197.8c10.1-2.1,20.2-4.2,30.2-6.3c7.9-1.6,4.5-13.7-3.3-12.1c-10.1,2.1-20.2,4.2-30.2,6.3 C190.5,187.4,193.9,199.4,201.7,197.8L201.7,197.8z" class="st20"/></g><g><path d="M314.3,185.8c-10.1-2.1-20.2-4.2-30.2-6.3c-7.9-1.6-11.2,10.4-3.3,12.1c10.1,2.1,20.2,4.2,30.2,6.3 C318.9,199.4,322.2,187.4,314.3,185.8L314.3,185.8z" class="st20"/></g></g></g></g></g></svg>